<svg width="34" height="38" viewBox="0 0 34 38" fill="none" xmlns="http://www.w3.org/2000/svg">
<path d="M26.5808 29.9107C27.5074 29.9107 28.396 30.3214 29.0511 31.0525C29.7063 31.7836 30.0744 32.7751 30.0744 33.809C30.0744 34.8429 29.7063 35.8345 29.0511 36.5656C28.396 37.2966 27.5074 37.7074 26.5808 37.7074C25.6542 37.7074 24.7656 37.2966 24.1105 36.5656C23.4553 35.8345 23.0872 34.8429 23.0872 33.809C23.0872 32.7751 23.4553 31.7836 24.1105 31.0525C24.7656 30.3214 25.6542 29.9107 26.5808 29.9107ZM26.5808 31.8599C26.1175 31.8599 25.6732 32.0652 25.3456 32.4308C25.018 32.7963 24.834 33.2921 24.834 33.809C24.834 34.326 25.018 34.8218 25.3456 35.1873C25.6732 35.5528 26.1175 35.7582 26.5808 35.7582C27.0441 35.7582 27.4884 35.5528 27.816 35.1873C28.1436 34.8218 28.3276 34.326 28.3276 33.809C28.3276 33.2921 28.1436 32.7963 27.816 32.4308C27.4884 32.0652 27.0441 31.8599 26.5808 31.8599ZM10.8597 29.9107C11.7862 29.9107 12.6748 30.3214 13.33 31.0525C13.9852 31.7836 14.3532 32.7751 14.3532 33.809C14.3532 34.8429 13.9852 35.8345 13.33 36.5656C12.6748 37.2966 11.7862 37.7074 10.8597 37.7074C9.93311 37.7074 9.0445 37.2966 8.38933 36.5656C7.73415 35.8345 7.36608 34.8429 7.36608 33.809C7.36608 32.7751 7.73415 31.7836 8.38933 31.0525C9.0445 30.3214 9.93311 29.9107 10.8597 29.9107ZM10.8597 31.8599C10.3964 31.8599 9.95208 32.0652 9.62449 32.4308C9.29691 32.7963 9.11287 33.2921 9.11287 33.809C9.11287 34.326 9.29691 34.8218 9.62449 35.1873C9.95208 35.5528 10.3964 35.7582 10.8597 35.7582C11.3229 35.7582 11.7672 35.5528 12.0948 35.1873C12.4224 34.8218 12.6065 34.326 12.6065 33.809C12.6065 33.2921 12.4224 32.7963 12.0948 32.4308C11.7672 32.0652 11.3229 31.8599 10.8597 31.8599ZM30.0744 6.52066H6.09092L10.5452 18.2157H24.834C25.4104 18.2157 25.917 17.9038 26.2314 17.436L31.4718 9.63933C31.6989 9.30797 31.8212 8.89865 31.8212 8.46983C31.8212 7.95288 31.6371 7.4571 31.3096 7.09156C30.982 6.72602 30.5377 6.52066 30.0744 6.52066ZM24.834 20.1648H10.6326L9.28755 23.2055L9.11287 24.0632C9.11287 24.5801 9.29691 25.0759 9.62449 25.4415C9.95208 25.807 10.3964 26.0124 10.8597 26.0124H30.0744V27.9615H10.8597C9.93311 27.9615 9.0445 27.5508 8.38933 26.8197C7.73415 26.0886 7.36608 25.0971 7.36608 24.0632C7.36556 23.4018 7.51584 22.7512 7.80278 22.1725L9.06047 19.3072L2.71961 2.62233H0.378906V0.673157H3.87249L5.35727 4.57149H30.0744C31.0009 4.57149 31.8895 4.98221 32.5447 5.71329C33.1999 6.44437 33.568 7.43593 33.568 8.46983C33.568 9.44442 33.271 10.2631 32.7819 10.9258L27.6987 18.5081C27.0699 19.5021 26.0218 20.1648 24.834 20.1648Z" fill="white"/>
</svg>
